<?xml version="1.0" standalone="no"?>
<!DOCTYPE svg PUBLIC "-//W3C//DTD SVG 20010904//EN"
 "http://www.w3.org/TR/2001/REC-SVG-20010904/DTD/svg10.dtd">
<svg version="1.0" xmlns="http://www.w3.org/2000/svg"
 width="561.000000pt" height="568.000000pt" viewBox="0 0 561.000000 568.000000"
 preserveAspectRatio="xMidYMid meet">

<g transform="translate(0.000000,568.000000) scale(0.100000,-0.100000)"
fill="#000000" stroke="none">
<path d="M2843 3536 c-408 -78 -727 -374 -835 -774 -31 -117 -36 -347 -10
-472 40 -195 128 -363 261 -503 159 -166 321 -260 546 -315 105 -25 363 -22
467 6 319 87 553 275 693 557 117 235 143 496 74 746 -47 170 -172 377 -297
490 -128 116 -302 209 -467 250 -105 27 -331 34 -432 15z m216 -123 l51 -58 0
47 c0 28 -5 48 -12 51 -25 9 -1 16 27 9 19 -5 25 -11 17 -16 -7 -4 -12 -28
-12 -54 0 -26 -3 -58 -7 -71 -6 -24 -9 -22 -59 35 l-54 59 0 -47 c0 -28 5 -48
13 -51 6 -3 -3 -6 -20 -6 -32 -1 -43 11 -23 24 6 3 10 35 10 71 0 35 4 64 9
64 5 0 32 -26 60 -57z m-183 -33 c22 -33 45 -60 52 -60 7 0 10 -4 7 -10 -11
-18 -53 -11 -60 10 -4 13 -15 20 -31 20 -23 0 -29 -12 -25 -47 1 -8 -9 -13
-26 -13 -16 0 -23 4 -17 8 7 4 17 34 24 67 22 114 20 113 76 25z m522 8 c31
-26 -13 -87 -52 -72 -17 7 -37 -30 -28 -54 3 -10 -1 -10 -24 0 -40 17 -40 17
-22 31 21 17 50 95 43 118 -6 18 -4 18 32 3 21 -9 44 -21 51 -26z m-708 8 c0
-2 3 -12 6 -21 6 -14 4 -15 -12 -5 -13 8 -27 9 -45 2 -46 -18 -43 -76 6 -108
21 -13 31 -15 50 -6 14 7 25 19 25 27 0 9 5 13 10 10 32 -20 -21 -65 -75 -65
-38 0 -61 15 -75 50 -17 40 1 83 43 104 30 15 67 21 67 12z m850 -160 c-7 -41
-9 -79 -6 -85 9 -14 0 -14 -25 0 -16 8 -19 17 -14 38 4 19 1 32 -11 42 -14 12
-19 10 -34 -9 l-18 -22 -24 20 c-12 11 -16 18 -8 15 8 -3 44 15 79 40 36 25
67 43 69 40 3 -2 -1 -38 -8 -79z m-1040 64 c0 -20 65 -110 80 -110 10 0 7 -7
-10 -20 -27 -21 -45 -26 -35 -10 8 12 -65 121 -76 114 -17 -10 -9 9 9 22 21
16 32 17 32 4z m742 -103 c121 -39 203 -90 298 -186 144 -145 211 -305 211
-508 0 -165 -42 -296 -136 -428 -94 -132 -252 -239 -415 -282 -89 -23 -264
-23 -350 0 -154 41 -302 137 -396 255 -57 72 -119 198 -138 282 -23 94 -21
259 4 354 67 262 283 469 555 532 93 21 271 12 367 -19z m488 -38 c12 -21 -14
-59 -41 -59 -19 0 -24 -20 -20 -80 l1 -25 -19 22 c-15 18 -18 32 -14 64 6 40
5 41 -15 30 -14 -8 -19 -17 -15 -29 5 -12 -1 -10 -21 8 -18 16 -23 26 -14 29
22 6 98 84 98 101 0 15 38 -24 60 -61z m-1332 29 c7 -7 12 -20 12 -30 0 -20
37 -33 75 -26 30 6 33 -7 4 -22 -12 -7 -37 -9 -61 -5 -32 6 -39 4 -36 -6 3 -8
14 -19 26 -25 21 -10 21 -11 4 -27 -22 -20 -32 -21 -32 -4 0 7 -20 33 -45 57
-25 24 -45 40 -45 35 0 -4 -3 -5 -7 -1 -10 9 57 65 78 66 8 0 20 -5 27 -12z
m-137 -130 c-27 -9 -27 -24 0 -38 17 -10 21 -8 26 9 6 25 16 27 33 6 10 -12
10 -15 -3 -15 -9 0 -19 -5 -22 -11 -9 -14 26 -40 48 -35 21 5 21 2 1 -29 -15
-22 -43 -38 -30 -16 8 12 -101 84 -115 75 -15 -9 -6 7 29 54 20 26 27 30 39
20 13 -10 12 -13 -6 -20z m1565 -62 c-28 -8 -29 -9 -11 -17 11 -4 29 -8 40 -8
11 -1 26 -10 33 -21 15 -24 14 -24 -31 -5 -20 8 -41 15 -46 15 -12 0 -44 -97
-36 -110 3 -5 2 -10 -4 -10 -23 0 -25 61 -5 115 6 15 4 15 -15 4 -11 -8 -21
-21 -21 -29 0 -10 -7 -7 -20 10 -24 31 -25 40 -4 40 28 0 114 52 114 69 0 10
8 4 18 -14 l19 -30 -31 -9z m-1531 -135 c-4 -13 -16 -21 -38 -23 -27 -2 -32
-7 -32 -28 0 -18 5 -25 18 -24 20 2 21 -3 2 -36 -9 -16 -14 -19 -15 -10 0 9
-25 40 -55 70 -30 30 -55 58 -55 62 0 6 168 17 178 11 2 -1 1 -11 -3 -22z
m1640 -27 c18 -19 17 -55 -3 -62 -9 -3 -11 3 -6 22 10 41 -21 33 -43 -11 -23
-49 -63 -57 -88 -19 -19 29 -14 56 11 56 14 0 14 -3 4 -16 -11 -12 -10 -18 3
-31 14 -14 17 -13 36 18 38 64 56 73 86 43z m-1770 -294 c18 -20 18 -21 -6
-46 l-25 -25 -24 26 c-23 24 -23 25 -5 45 23 25 37 25 60 0z m1783 -3 l22 -23
-25 -24 c-14 -13 -26 -22 -28 -19 -1 2 -11 14 -21 27 -18 21 -18 23 -1 42 23
25 27 25 53 -3z m-1770 -232 c39 -4 72 -11 72 -14 0 -4 -23 -24 -51 -46 -28
-21 -55 -48 -59 -59 -8 -20 -8 -20 -18 4 -8 20 -6 28 10 41 29 23 20 55 -15
52 -15 -1 -27 2 -27 7 0 5 -3 17 -7 27 -5 15 -4 16 8 6 8 -6 47 -15 87 -18z
m1657 -5 c3 -5 -1 -10 -9 -10 -9 0 -16 -9 -16 -20 0 -25 5 -25 47 1 28 18 39
20 59 10 38 -17 30 -100 -9 -85 -15 5 -15 8 3 23 14 11 17 20 11 30 -7 11 -15
10 -45 -8 -40 -25 -71 -21 -81 10 -13 39 21 80 40 49z m-60 -172 c7 -45 29
-49 88 -19 20 10 37 17 37 14 0 -21 -27 -44 -62 -54 -35 -9 -39 -12 -24 -21 9
-5 24 -7 32 -4 17 7 17 4 2 -29 -6 -14 -14 -22 -17 -17 -10 16 -111 63 -121
57 -13 -8 -13 1 0 26 10 18 12 18 35 3 29 -19 31 -11 10 29 -12 23 -12 33 -3
50 12 23 13 22 23 -35z m-1462 7 c9 -20 17 -40 17 -45 0 -18 -18 -10 -23 10
-6 22 -14 24 -36 11 -10 -6 -10 -13 -2 -29 8 -16 7 -21 -4 -26 -10 -4 -15 1
-15 14 0 11 -3 20 -6 20 -10 0 -49 -23 -55 -32 -3 -5 -11 3 -17 17 -9 20 -9
25 2 25 19 0 106 50 106 61 0 20 17 7 33 -26z m76 -125 c29 -40 25 -74 -10
-78 -22 -3 -28 -10 -33 -36 -4 -18 -4 -42 0 -52 5 -15 2 -15 -15 5 -20 22 -20
28 -7 81 4 16 -21 9 -30 -9 -10 -20 -11 -20 -27 -3 -20 22 -22 32 -6 32 15 0
95 72 92 82 -7 19 15 5 36 -22z m1291 -81 c0 -19 5 -21 49 -17 47 3 49 2 34
-14 -10 -11 -31 -18 -55 -18 -43 0 -51 -16 -13 -26 24 -6 24 -7 7 -30 -15 -21
-40 -35 -28 -16 8 13 -80 95 -93 88 -25 -16 -8 14 24 43 29 26 39 29 55 21 11
-6 20 -20 20 -31z m-1170 -44 c15 -14 13 -19 -27 -62 -23 -26 -43 -53 -43 -61
0 -9 -7 -8 -26 5 -21 13 -23 18 -11 22 21 8 88 91 81 102 -8 14 8 10 26 -6z
m1087 -135 c16 0 16 -1 0 -17 -14 -14 -20 -15 -41 -4 -14 8 -32 11 -40 8 -18
-7 -21 -33 -6 -42 15 -9 12 -19 -11 -34 -19 -11 -21 -11 -16 2 3 8 -1 39 -9
69 -7 29 -14 63 -14 76 0 22 3 21 59 -18 33 -22 68 -40 78 -40z m-936 33 c16
-10 29 -20 29 -23 0 -9 -19 -35 -22 -30 -2 3 -8 14 -14 25 -25 45 -94 19 -94
-36 0 -37 26 -62 56 -55 18 5 22 3 18 -9 -9 -23 -41 -18 -73 13 -40 37 -45 61
-21 100 16 27 26 32 56 32 20 0 49 -8 65 -17z m697 -45 c19 -19 14 -56 -8 -70
-25 -16 -25 -23 -1 -47 19 -19 19 -20 -10 -30 -25 -9 -29 -8 -29 9 0 28 -36
107 -52 113 -7 2 2 11 22 20 43 19 63 20 78 5z m-531 -85 c6 -38 13 -76 18
-86 6 -15 4 -16 -16 -9 -15 6 -25 19 -27 35 -4 31 -38 43 -52 17 -5 -9 -6 -20
-3 -24 9 -8 -8 -6 -32 4 -11 5 -15 9 -9 9 6 1 30 28 54 61 24 33 47 60 50 60
4 0 12 -30 17 -67z m243 -27 c0 22 -5 45 -12 52 -9 9 -7 12 13 12 24 0 24 -1
21 -75 -2 -41 -6 -75 -10 -75 -3 0 -28 21 -54 47 l-48 47 0 -41 c0 -24 5 -43
13 -46 6 -3 -4 -5 -23 -5 -19 0 -29 2 -22 5 8 3 12 28 12 76 l0 71 55 -54 55
-54 0 40z"/>
<path d="M2826 3375 c-3 -9 0 -15 9 -15 9 0 12 6 9 15 -4 8 -7 15 -9 15 -2 0
-5 -7 -9 -15z"/>
<path d="M3343 3360 c-9 -24 -9 -30 2 -30 19 0 38 27 31 45 -9 23 -21 18 -33
-15z"/>
<path d="M3496 3261 c-4 -7 -5 -15 -2 -18 9 -9 19 4 14 18 -4 11 -6 11 -12 0z"/>
<path d="M2932 3200 c-228 -31 -435 -180 -536 -384 -100 -203 -100 -419 1
-626 39 -81 59 -108 137 -185 68 -68 110 -100 166 -128 360 -179 780 -40 955
318 123 250 89 541 -89 756 -150 182 -401 280 -634 249z m115 -82 c6 -7 50
-107 98 -223 104 -250 111 -263 149 -273 16 -4 31 -13 34 -20 3 -9 -22 -12
-90 -12 -96 0 -115 5 -99 24 6 7 -2 38 -19 81 l-28 70 -76 3 -77 3 -24 -56
c-31 -70 -32 -93 -2 -97 12 -2 21 -7 20 -13 -2 -6 -45 -11 -98 -13 -80 -2 -95
0 -95 13 0 9 9 15 24 15 14 0 31 6 39 14 7 8 55 115 107 238 51 122 97 231
102 241 10 20 22 22 35 5z m358 -608 c4 -7 -122 -10 -370 -10 -248 0 -374 3
-370 10 4 6 138 10 370 10 232 0 366 -4 370 -10z m-231 -104 c49 -20 76 -61
76 -113 0 -77 -52 -142 -131 -163 -78 -21 -112 2 -40 27 50 17 71 48 71 107 0
41 -5 53 -34 82 -24 24 -43 34 -65 34 l-31 0 2 -227 3 -228 33 -5 c18 -3 34
-9 35 -15 1 -6 -46 -11 -121 -13 -97 -2 -123 0 -120 10 3 7 14 14 26 16 13 2
24 13 27 25 3 12 4 117 3 232 l-3 210 -32 10 c-18 5 -33 13 -33 17 0 15 297 9
334 -6z"/>
<path d="M3004 2944 c-4 -10 -15 -41 -26 -67 -10 -26 -18 -52 -18 -57 0 -6 25
-10 55 -10 30 0 55 2 55 5 0 8 -50 139 -55 143 -3 3 -8 -4 -11 -14z"/>
<path d="M3672 3157 c-22 -23 -20 -37 4 -37 18 0 35 33 25 48 -5 9 -14 6 -29
-11z"/>
<path d="M2340 3162 c0 -10 33 -42 44 -42 4 0 6 10 4 23 -2 14 -11 23 -25 25
-13 2 -23 -1 -23 -6z"/>
<path d="M2180 2835 c12 -15 30 -12 30 6 0 5 -10 9 -21 9 -18 0 -19 -2 -9 -15z"/>
<path d="M2165 2270 c4 -6 11 -8 16 -5 14 9 11 15 -7 15 -8 0 -12 -5 -9 -10z"/>
<path d="M2351 1979 c-20 -17 -21 -20 -6 -25 20 -8 54 21 40 35 -6 6 -19 2
-34 -10z"/>
<path d="M3616 1931 c-3 -4 3 -16 14 -26 27 -24 50 -6 25 19 -18 18 -31 20
-39 7z"/>
<path d="M3490 1754 c0 -8 5 -12 10 -9 6 4 8 11 5 16 -9 14 -15 11 -15 -7z"/>
<path d="M3307 1723 c-8 -7 14 -53 25 -53 14 0 9 48 -6 53 -8 3 -16 3 -19 0z"/>
<path d="M2780 1655 c-10 -12 -10 -15 4 -15 9 0 16 7 16 15 0 8 -2 15 -4 15
-2 0 -9 -7 -16 -15z"/>
</g>
</svg>
